PathFileType	4	(X/Y/Z)	Patient4_TMGait_0pt7_02_left_51.trc.trc
DataRate	CameraRate	NumFrames	NumMarkers	Units	OrigDataRate	OrigDataStartFrame	OrigNumFrames
89.743589743590	89.743589743590	4	33	mm	89.743589743590	89	       141
Frame#	Time	Sacral			L.Shoulder			Chest			R.Shoulder			Neck			R.ASIS			L.ASIS			R.Thigh.Superior			R.Thigh.Lateral			R.Thigh.Inferior			R.Patella			L.Thigh.Superior			L.Thigh.Lateral			L.Thigh.Inferior			L.Patella			L.Shank.Superior			L.Shank.Lateral			L.Shank.Inferior			R.Shank.Superior			R.Shank.Lateral			R.Shank.Inferior			R.Heel			R.Midfoot.Superior			R.Midfoot.Lateral			R.Toe			L.Heel			L.Midfoot.Lateral			L.Midfoot.Superior			L.Toe			L.Elbow			L.Wrist			R.Elbow			R.Wrist			
		X1	Y1	Z1	X2	Y2	Z2	X3	Y3	Z3	X4	Y4	Z4	X5	Y5	Z5	X6	Y6	Z6	X7	Y7	Z7	X8	Y8	Z8	X9	Y9	Z9	X10	Y10	Z10	X11	Y11	Z11	X12	Y12	Z12	X13	Y13	Z13	X14	Y14	Z14	X15	Y15	Z15	X16	Y16	Z16	X17	Y17	Z17	X18	Y18	Z18	X19	Y19	Z19	X20	Y20	Z20	X21	Y21	Z21	X22	Y22	Z22	X23	Y23	Z23	X24	Y24	Z24	X25	Y25	Z25	X26	Y26	Z26	X27	Y27	Z27	X28	Y28	Z28	X29	Y29	Z29	X30	Y30	Z30	X31	Y31	Z31	X32	Y32	Z32	X33	Y33	Z33	

89	59.390571428571	796.904018660001	1000.433035216646	519.372117010286	1002.039290661369	1420.601046412134	334.572824723747	1096.052606450907	1350.340923225249	501.440369000338	1007.494555992201	1432.785597043225	668.938246770616	991.231752465359	1483.069933505615	488.799135149358	1019.268269863822	931.391783494835	646.554088042456	1013.610904952946	949.005037544874	371.458936984809	1088.628534556917	750.280789680931	625.318352346873	1019.964491165228	632.142234309906	682.061701155644	1112.038907161238	590.074027508207	610.109728366621	1127.651993642500	498.742014556659	619.124370261915	1051.030814732733	731.910362085902	393.295827078741	964.457812831205	620.591188666061	320.455086072311	1048.266454561512	532.582463883845	378.685724422913	1038.594062999713	447.237997124775	373.358601176517	968.647059153754	392.243852570021	363.419428807758	828.981809527699	354.103105736510	307.632945412548	810.008292760242	225.087853550557	360.910006917137	1098.741173420989	407.990162160712	624.369829877906	1026.982710947817	304.057457769248	685.029121566587	1072.196747466793	208.449937659978	624.959319620474	940.175962885180	44.238469889966	595.242840888797	1111.925186385789	99.210919831643	634.172198492829	1022.635943387671	37.369949111573	670.159184294530	1231.198334835893	44.139621052538	662.184921732799	617.856626157926	160.145974152410	392.565358390287	676.730366540685	117.421030140541	312.188820141706	780.194970098373	126.576761596916	335.723591660318	860.437524342021	30.355502410696	306.013939211979	1044.077002149580	1095.171108506918	178.702623336878	1289.372926426829	1111.917894815752	234.226326813179	847.869052634675	1132.713583374775	791.449570775698	787.715150782038	879.951230637527	809.916082996372	
90	59.401714285714	796.904135764038	1001.690721674309	522.491869870234	1001.916776943630	1421.182265456909	336.127005803352	1096.912611194718	1350.908404121296	502.465292070806	1009.581704413187	1433.584963379634	670.436189438318	992.158984583228	1483.782802341244	490.362351121835	1019.725656886841	932.352186527883	648.569258269441	1012.903674752356	949.691851767158	373.502985748953	1087.017244976066	749.182815122669	628.476753680897	1016.777453967034	632.044984700886	684.044441445524	1108.296813692906	589.199262612695	611.744928071418	1122.988758191974	497.801929783724	620.437954543629	1055.585754654327	734.989493134525	395.855945037335	973.057238113299	621.652074993709	322.540992630757	1059.194673442625	535.471614578514	381.158764638683	1050.606315654847	449.141640027391	375.564567441047	979.186212095436	394.209398670624	365.461993664058	838.349182535666	360.607309663408	309.478171606739	815.553222908593	231.964049350548	362.097532214691	1093.349624323605	407.413446566401	625.507341020516	1020.917110619599	303.814191190186	685.799017103314	1065.534816647373	208.138151764458	625.434776306745	932.585284928381	44.232652304807	595.349181403517	1104.245841301943	99.001576242358	634.382462856922	1015.001630228244	37.367804372541	670.271385262384	1223.591673624496	43.875349125572	662.448592504598	621.373229403979	175.669142500865	393.230760588034	678.172798526998	129.899662110209	312.838256817162	782.250097773470	132.899600767559	336.685643926286	856.393616910400	30.134748003524	306.775294873269	1037.399431524604	1092.608523803469	183.839482968024	1283.860708760011	1102.270635878499	236.980742683521	853.825777744451	1130.796266821722	793.489657204165	799.272663400916	876.707035342639	811.416176469778	
91	59.412857142857	796.773556500064	1002.901920583691	525.383833067692	1001.434803627274	1421.695372844234	337.543388286891	1097.589225884155	1351.412983241272	503.271833526739	1011.611460727916	1434.272260402394	671.810047794115	992.918660962163	1484.441788425618	491.807245130918	1020.055218411543	933.214141394596	650.362115900235	1012.050854581155	950.367769881631	375.260223961817	1085.209520765395	748.111661347058	631.153346178531	1013.580644618760	631.979285241411	685.806180904134	1104.416639820921	588.350195853242	613.080240955065	1118.145129846284	496.890632745766	621.531804501170	1059.898238877466	738.286008367538	398.401775763797	981.481818116707	623.079093629516	324.557329004493	1069.760443916712	538.854572473670	383.749487938158	1062.439980884876	451.605602404510	377.985272525973	989.752118759828	396.594614960172	367.645498313651	848.020961738749	367.075834410349	311.404439896392	821.739846278186	238.882719499184	363.455378107589	1087.826856484511	406.858900182060	626.451545087973	1014.773531280100	303.601621403387	686.446725992531	1058.813194147542	207.857535971860	625.816556596116	924.945211806100	44.262084009749	595.433416159486	1096.576679226179	98.802134445870	634.518108010789	1007.322326613853	37.372813359679	670.357525485281	1215.943473557319	43.569686834377	662.669495032127	626.039953246910	190.354424464578	393.992061542842	680.962892707075	141.991176022274	313.625926872928	785.321365819709	139.505179526286	337.883273285786	853.879614158421	30.636815072338	307.733992862149	1030.370975913282	1090.064938888508	188.942845638790	1277.880423326718	1091.450486423182	239.603499167329	860.016905250997	1128.674630659788	795.399084022824	811.815597502491	873.234858330154	813.040355876687	
92	59.424000000000	796.529916900557	1004.054746354834	528.050257951617	1000.646432104600	1422.146071561565	338.819134185485	1098.078888034878	1351.856230657245	503.878923885866	1013.552230116202	1434.869962214619	673.051326851674	993.529548943368	1485.061872416257	493.112284459536	1020.266849948426	933.999203462745	651.971385835012	1011.067729934442	951.043921475707	376.745669607713	1083.304717780531	747.130484702168	633.286063970028	1010.459124602034	631.956268175952	687.320940001972	1100.496725786617	587.541641090813	614.106947158358	1113.217857496694	496.016523582701	622.375485808548	1063.882111146928	741.788407463343	400.955719933766	989.639248333604	624.884343358602	326.498850303265	1079.889955859149	542.726138020258	386.420758705787	1074.036526265424	454.621691512386	380.525191698857	1000.290989049642	399.392630439993	369.894763840423	857.904050321943	373.404888267737	313.379213149048	828.583653595072	245.679460279931	364.932209931662	1082.255975399620	406.330198676851	627.187361460507	1008.614328106555	303.440421896454	686.974818150417	1052.060905829425	207.607718125705	626.095813197208	917.247925999032	44.325751520615	595.506262458439	1088.903395456543	98.623773612119	634.587243082758	999.592466776625	37.392645430655	670.426458694383	1208.244842212301	43.248886335836	662.860950031589	631.803343935908	203.763193741211	394.823561671975	685.144842980331	153.288120694752	314.535748281051	789.520041837771	146.194979326182	339.260028566601	853.248315925038	31.981131457696	308.898089426235	1023.067323932947	1087.564470053016	194.002951962052	1271.375785115801	1079.432964974584	242.072212356380	866.462577037472	1126.352854868528	797.139640906957	825.347564779526	869.597741402761	814.733590610812	
